<?xml version="1.0" encoding="UTF-8" standalone="no"?>
<!-- Created with Inkscape (http://www.inkscape.org/) -->

<svg
   xmlns:dc="http://purl.org/dc/elements/1.1/"
   xmlns:cc="http://creativecommons.org/ns#"
   xmlns:rdf="http://www.w3.org/1999/02/22-rdf-syntax-ns#"
   xmlns:svg="http://www.w3.org/2000/svg"
   xmlns="http://www.w3.org/2000/svg"
   xmlns:sodipodi="http://sodipodi.sourceforge.net/DTD/sodipodi-0.dtd"
   xmlns:inkscape="http://www.inkscape.org/namespaces/inkscape"
   width="200"
   height="150"
   viewBox="0 0 200 150"
   id="svg2"
   version="1.1"
   inkscape:version="0.91 r13725"
   sodipodi:docname="drawing.svg">
  <defs
     id="defs4" />
  <sodipodi:namedview
     id="base"
     pagecolor="#ffffff"
     bordercolor="#666666"
     borderopacity="1.0"
     inkscape:pageopacity="0.0"
     inkscape:pageshadow="2"
     inkscape:zoom="1.28"
     inkscape:cx="202.83001"
     inkscape:cy="193.59386"
     inkscape:document-units="px"
     inkscape:current-layer="layer1"
     showgrid="false"
     units="px"
     inkscape:window-width="1366"
     inkscape:window-height="711"
     inkscape:window-x="0"
     inkscape:window-y="27"
     inkscape:window-maximized="1" />
  <metadata
     id="metadata7">
    <rdf:RDF>
      <cc:Work
         rdf:about="">
        <dc:format>image/svg+xml</dc:format>
        <dc:type
           rdf:resource="http://purl.org/dc/dcmitype/StillImage" />
        <dc:title></dc:title>
      </cc:Work>
    </rdf:RDF>
  </metadata>
  <g
     inkscape:label="Capa 1"
     inkscape:groupmode="layer"
     id="layer1"
     transform="translate(0,-902.36216)">
    <g
       id="g4149"
       transform="matrix(0.27300152,0,0,0.41124071,1.9439421,543.43609)"
       style="fill:#f0f0f0;fill-opacity:1">
      <path
         style="stroke:#f0f0f0;stroke-width:2.98448515;stroke-opacity:1;fill:#f0f0f0;fill-opacity:1"
         id="path5"
         d="m 116.75905,983.3299 c 9.03635,0 16.38716,-6.74669 16.38716,-15.03554 0,-8.28886 -7.35081,-15.03551 -16.38716,-15.03551 -9.03634,0 -16.38715,6.74665 -16.38715,15.03551 0,8.28885 7.35081,15.03554 16.38715,15.03554 z m 0,-25.77519 c 6.4542,0 11.70512,4.81781 11.70512,10.73965 0,5.92184 -5.25092,10.73964 -11.70512,10.73964 -6.45419,0 -11.70511,-4.8178 -11.70511,-10.73964 0,-5.92184 5.25092,-10.73965 11.70511,-10.73965 z"
         inkscape:connector-curvature="0" />
      <path
         style="stroke:#f0f0f0;stroke-width:2.98448515;stroke-opacity:1;fill:#f0f0f0;fill-opacity:1"
         id="path7"
         d="m 116.34469,1045.0979 35.91363,-47.5917 c 13.47024,-16.4789 11.52017,-43.56001 -4.16936,-57.95543 -8.47919,-7.78194 -19.75355,-12.06706 -31.74427,-12.06706 -11.99071,0 -23.26508,4.28512 -31.74426,12.06491 -15.69187,14.39542 -17.64194,41.48078 -4.2232,57.89098 l 35.96746,47.6583 z M 87.91064,942.5858 c 7.59427,-6.96789 17.69344,-10.80624 28.43405,-10.80624 10.74061,0 20.83744,3.83835 28.43406,10.80624 14.16084,12.99282 15.90491,37.4534 3.68243,52.4073 L 116.34469,1037.55 84.17671,994.9287 C 72.00339,980.0392 73.74745,955.57862 87.91064,942.5858 Z"
         inkscape:connector-curvature="0" />
    </g>
    <g
       id="g4165"
       transform="matrix(0.57470688,0,0,0.57417315,-60.861687,381.03843)"
       style="stroke:#f0f0f0;stroke-opacity:1;fill:#f0f0f0;fill-opacity:1">
      <path
         style="stroke:#f0f0f0;stroke-width:1.74082589;stroke-opacity:1;fill:#f0f0f0;fill-opacity:1"
         id="path7-6"
         d="m 295.5977,960.36835 c -8.14467,0 -14.77014,7.90194 -14.77014,17.61579 0,1.38916 0.94529,2.51656 2.11002,2.51656 1.16473,0 2.11002,-1.1274 2.11002,-2.51656 0,-6.93811 4.73278,-12.58271 10.5501,-12.58271 1.16473,0 2.11002,-1.12741 2.11002,-2.51654 0,-1.38913 -0.94318,-2.51654 -2.11002,-2.51654 z"
         inkscape:connector-curvature="0" />
      <g
         id="g4153"
         style="stroke:#f0f0f0;stroke-opacity:1;fill:#f0f0f0;fill-opacity:1">
        <path
           inkscape:connector-curvature="0"
           d="m 343.05205,960.3457 c -25.08603,-29.91916 -65.90014,-29.91916 -90.98617,0 l -16.75567,19.9813 17.17135,20.4797 c 12.54195,14.9583 29.01699,22.44 45.49413,22.44 16.47715,0 32.95007,-7.4792 45.49414,-22.44 l 16.75567,-19.9839 -17.17345,-20.4771 z m -2.5679,36.9026 c -23.44021,27.9537 -61.57882,27.9537 -85.01903,0 l -14.18777,-16.9213 13.7721,-16.42543 c 23.44021,-27.95374 61.57882,-27.95374 85.01903,0 l 14.18777,16.92123 -13.7721,16.4255 z"
           id="path5-3"
           style="stroke:#f0f0f0;stroke-width:1.74082589;stroke-opacity:1;fill:#f0f0f0;fill-opacity:1" />
        <path
           inkscape:connector-curvature="0"
           d="m 297.70772,947.78564 c -15.12462,0 -27.43026,14.67647 -27.43026,32.71506 0,18.0386 12.30564,32.715 27.43026,32.715 15.12462,0 27.43026,-14.6764 27.43026,-32.715 0,-18.03859 -12.30353,-32.71506 -27.43026,-32.71506 z m 0,60.39696 c -12.79727,0 -23.21022,-12.4191 -23.21022,-27.6819 0,-15.26284 10.41295,-27.68198 23.21022,-27.68198 12.79727,0 23.21022,12.41914 23.21022,27.68198 0,15.2628 -10.41084,27.6819 -23.21022,27.6819 z"
           id="path9"
           style="stroke:#f0f0f0;stroke-width:1.74082589;stroke-opacity:1;fill:#f0f0f0;fill-opacity:1" />
      </g>
    </g>
    <g
       id="g4184"
       transform="matrix(0.11948529,0,0,0.14,10.277047,950.28863)"
       style="stroke:#f0f0f0;stroke-opacity:1;fill:#f0f0f0;fill-opacity:1">
      <path
         id="path5-5"
         d="m 305.496,329.34434 c -7.832,-3.33928 -17.144,-3.29166 -24.92,0.1131 -0.504,0.22024 -0.968,0.48214 -1.392,0.77976 l -105.936,73.38095 c -1.2,0.42857 -2.504,0.64881 -3.832,0.64881 l -66.584,0 c -13.696,0 -24.832,8.29167 -24.832,18.47619 l 0,76.14881 c 0,10.17857 11.136,18.47024 24.832,18.47024 l 66.592,0 c 1.328,0 2.632,0.22024 3.832,0.64881 l 105.936,73.38095 c 0.424,0.29762 0.896,0.55953 1.392,0.77976 3.936,1.72024 8.264,2.58334 12.592,2.58334 4.232,0 8.464,-0.82143 12.328,-2.47024 7.824,-3.33333 12.496,-9.32143 12.496,-16.02976 l 0,-230.88096 c 0,-6.70833 -4.672,-12.69642 -12.504,-16.02976 z M 302,576.25506 c 0,3.43452 -3.112,5.13095 -4.448,5.70238 -1.264,0.53571 -4.496,1.55952 -8.2,0.22024 L 183.4,508.78482 c -0.432,-0.30357 -0.904,-0.56548 -1.408,-0.77976 -3.816,-1.67262 -8.16,-2.54762 -12.576,-2.54762 l -66.584,0 c -4.872,0 -8.832,-2.94643 -8.832,-6.57143 l 0,-76.14286 c 0,-3.625 3.96,-6.57143 8.832,-6.57143 l 66.592,0 c 4.408,0 8.76,-0.875 12.576,-2.54762 0.504,-0.21428 0.976,-0.47619 1.408,-0.77976 L 289.36,339.45149 c 3.72,-1.34524 6.944,-0.31548 8.2,0.22023 1.328,0.57143 4.44,2.26786 4.44,5.70238 l 0,230.88096 z"
         inkscape:connector-curvature="0"
         style="stroke:#f0f0f0;stroke-opacity:1;fill:#f0f0f0;fill-opacity:1" />
      <path
         id="path7-62"
         d="m 364.664,388.15387 c -3.128,2.32738 -3.128,6.08928 0,8.41666 49.904,37.13096 49.904,97.55953 0,134.69048 -3.128,2.32738 -3.128,6.08929 0,8.41667 1.56,1.16071 3.608,1.74404 5.656,1.74404 2.048,0 4.096,-0.58333 5.656,-1.74404 56.144,-41.77977 56.144,-109.75 0,-151.52381 -3.12,-2.32738 -8.184,-2.32738 -11.312,0 z"
         inkscape:connector-curvature="0"
         style="stroke:#f0f0f0;stroke-opacity:1;fill:#f0f0f0;fill-opacity:1" />
      <path
         id="path9-9"
         d="m 347.656,406.01101 c -3.128,-2.32738 -8.184,-2.32738 -11.312,0 -3.128,2.32738 -3.128,6.08929 0,8.41667 34.376,25.57738 34.376,67.19642 0,92.77381 -3.128,2.32738 -3.128,6.08928 0,8.41666 1.56,1.16072 3.608,1.74405 5.656,1.74405 2.048,0 4.096,-0.58333 5.656,-1.74405 40.616,-30.22024 40.616,-79.3869 0,-109.60714 z"
         inkscape:connector-curvature="0"
         style="stroke:#f0f0f0;stroke-opacity:1;fill:#f0f0f0;fill-opacity:1" />
      <path
         sodipodi:nodetypes="sssssssssss"
         inkscape:connector-curvature="0"
         id="path11"
         d="m 270,285.21934 c -132.336,0 -240,80.10715 -240,178.57143 0,98.46429 107.664,178.57143 240,178.57143 132.336,0 240,-80.10714 240,-178.57143 0,-98.46428 -107.664,-178.57143 -240,-178.57143 z m 0,345.2381 c -123.512,0 -224,-74.76786 -224,-166.66667 0,-91.89881 100.488,-166.66667 224,-166.66667 52.20128,0 100.28992,13.35548 138.41776,35.71518 C 460.50304,363.38416 494,410.73226 494,463.79077 494,555.68958 393.512,630.45744 270,630.45744 Z"
         style="stroke:#f0f0f0;stroke-opacity:1;fill:#f0f0f0;fill-opacity:1" />
    </g>
    <g
       style="stroke:#f0f0f0;stroke-opacity:1"
       transform="matrix(2.8345163,0,0,2.992937,87.747896,963.63381)"
       id="g5">
      <path
         style="stroke:#f0f0f0;stroke-opacity:1"
         inkscape:connector-curvature="0"
         d="m 24.333,23.109 -11.431,0 c -0.276,0 -0.5,-0.224 -0.5,-0.5 0,-0.276 0.224,-0.5 0.5,-0.5 l 11.431,0 c 0.276,0 0.5,0.224 0.5,0.5 0,0.276 -0.224,0.5 -0.5,0.5 z"
         id="path7-1" />
      <path
         style="stroke:#f0f0f0;stroke-opacity:1"
         inkscape:connector-curvature="0"
         d="m 10.183,25.829 c -1.776,0 -3.221,-1.444 -3.221,-3.221 0,-1.777 1.444,-3.221 3.221,-3.221 1.775,0 3.22,1.444 3.22,3.221 0,1.777 -1.445,3.221 -3.22,3.221 z m 0,-5.441 c -1.225,0 -2.221,0.996 -2.221,2.221 0,1.225 0.996,2.221 2.221,2.221 1.224,0 2.22,-0.996 2.22,-2.221 0,-1.225 -0.997,-2.221 -2.22,-2.221 z"
         id="path9-2" />
      <path
         style="stroke:#f0f0f0;stroke-opacity:1"
         inkscape:connector-curvature="0"
         d="m 27.054,25.829 c -1.776,0 -3.221,-1.444 -3.221,-3.221 0,-1.777 1.444,-3.221 3.221,-3.221 1.777,0 3.221,1.444 3.221,3.221 0,1.777 -1.445,3.221 -3.221,3.221 z m 0,-5.441 c -1.225,0 -2.221,0.996 -2.221,2.221 0,1.225 0.996,2.221 2.221,2.221 1.225,0 2.221,-0.996 2.221,-2.221 0,-1.225 -0.997,-2.221 -2.221,-2.221 z"
         id="path11-7" />
    </g>
    <path
       style="stroke:#f0f0f0;stroke-opacity:1;fill:#f0f0f0;fill-opacity:1"
       inkscape:connector-curvature="0"
       d="m 178.94846,1032.7976 -6.81135,0 c -0.78232,0 -1.41726,-0.6704 -1.41726,-1.4965 0,-0.826 0.63494,-1.4964 1.41726,-1.4964 l 6.81135,0 c 1.75456,0 3.22568,-1.3289 3.49495,-3.1606 l 1.5108,-10.2149 c 0.10488,-0.7153 -0.0623,-1.4276 -0.47903,-2.0053 -0.41384,-0.5746 -1.01193,-0.9397 -1.69504,-1.0295 l -18.88071,-2.4303 c -0.27212,-0.036 -0.53006,-0.1526 -0.73981,-0.3382 L 145.093,995.47866 c -1.12531,-0.99964 -2.55674,-1.55034 -4.03069,-1.55034 l -26.69831,0 c -1.31805,0 -2.52839,0.70035 -3.23985,1.87358 l -7.97916,13.1839 c -0.17858,0.3023 -0.45919,0.5237 -0.78233,0.6255 l -9.637352,3.0678 c -1.431435,0.4549 -2.332808,1.9723 -2.103218,3.5346 l 1.349235,9.1255 c 0.382658,2.5829 2.457527,4.4595 4.934894,4.4595 l 11.987171,0 c 0.78232,0 1.41725,0.6704 1.41725,1.4964 0,0.8261 -0.63493,1.4965 -1.41725,1.4965 l -11.992841,0 c -3.883291,0 -7.140151,-2.939 -7.735396,-6.9915 l -1.349228,-9.1255 c -0.445024,-3.0288 1.309547,-5.9769 4.084533,-6.8598 l 9.138482,-2.9091 7.69855,-12.71998 c 1.23301,-2.03221 3.33623,-3.24734 5.62651,-3.24734 l 26.70398,0 c 2.13722,0 4.21492,0.79911 5.85044,2.25068 l 16.74349,14.85994 18.46404,2.3764 c 1.45127,0.1885 2.73247,0.9637 3.61117,2.1938 0.88154,1.2271 1.24152,2.7446 1.01759,4.2709 l -1.51079,10.215 c -0.48471,3.2982 -3.13498,5.6925 -6.29546,5.6925 z"
       id="path15" />
    <path
       style="stroke:#f0f0f0;stroke-opacity:1;fill:#f0f0f0;fill-opacity:1"
       inkscape:connector-curvature="0"
       d="m 147.72626,1012.1314 -32.50623,0 c -0.78233,0 -1.41726,-0.6705 -1.41726,-1.4965 0,-0.8261 0.63493,-1.4965 1.41726,-1.4965 l 32.50623,0 c 0.78232,0 1.41726,0.6704 1.41726,1.4965 0,0.826 -0.63494,1.4965 -1.41726,1.4965 z"
       id="path17" />
  </g>
</svg>
