<?xml version="1.0" encoding="UTF-8" standalone="no"?>
<!-- Generator: Adobe Illustrator 19.0.0, SVG Export Plug-In . SVG Version: 6.00 Build 0)  -->

<svg
   xmlns:dc="http://purl.org/dc/elements/1.1/"
   xmlns:cc="http://creativecommons.org/ns#"
   xmlns:rdf="http://www.w3.org/1999/02/22-rdf-syntax-ns#"
   xmlns:svg="http://www.w3.org/2000/svg"
   xmlns="http://www.w3.org/2000/svg"
   xmlns:xlink="http://www.w3.org/1999/xlink"
   xmlns:sodipodi="http://sodipodi.sourceforge.net/DTD/sodipodi-0.dtd"
   xmlns:inkscape="http://www.inkscape.org/namespaces/inkscape"
   version="1.1"
   id="Capa_1"
   x="0px"
   y="0px"
   viewBox="0 0 33 33"
   style="enable-background:new 0 0 33 33;"
   xml:space="preserve"
   inkscape:version="0.91 r13725"
   sodipodi:docname="ambulance.svg"><metadata
     id="metadata59"><rdf:RDF><cc:Work
         rdf:about=""><dc:format>image/svg+xml</dc:format><dc:type
           rdf:resource="http://purl.org/dc/dcmitype/StillImage" /><dc:title></dc:title></cc:Work></rdf:RDF></metadata><defs
     id="defs57"><linearGradient
       inkscape:collect="always"
       id="linearGradient4187"><stop
         style="stop-color:#0be9d8;stop-opacity:1"
         offset="0"
         id="stop4189" /><stop
         style="stop-color:#20d9ea;stop-opacity:0"
         offset="1"
         id="stop4191" /></linearGradient><linearGradient
       inkscape:collect="always"
       xlink:href="#linearGradient4187"
       id="linearGradient4193"
       x1="-0.27966082"
       y1="3.9152544"
       x2="49.919491"
       y2="45.025425"
       gradientUnits="userSpaceOnUse" /></defs><sodipodi:namedview
     pagecolor="#ffffff"
     bordercolor="#666666"
     borderopacity="1"
     objecttolerance="10"
     gridtolerance="10"
     guidetolerance="10"
     inkscape:pageopacity="0"
     inkscape:pageshadow="2"
     inkscape:window-width="1366"
     inkscape:window-height="711"
     id="namedview55"
     showgrid="false"
     inkscape:zoom="7.1515152"
     inkscape:cx="16.5"
     inkscape:cy="16.5"
     inkscape:window-x="0"
     inkscape:window-y="27"
     inkscape:window-maximized="1"
     inkscape:current-layer="Capa_1" /><g
     id="g3"
     style="fill-opacity:1;fill:url(#linearGradient4193)"><g
       id="g5"
       style="fill-opacity:1;fill:url(#linearGradient4193)"><path
         d="M31.239,26.632h-3.552c-0.276,0-0.5-0.224-0.5-0.5s0.224-0.5,0.5-0.5h3.552c0.42,0,0.761-0.342,0.761-0.762v-5.499    c0-0.631-0.513-1.144-1.144-1.144H18.23c-0.276,0-0.5-0.224-0.5-0.5V7.229H1.762C1.342,7.229,1,7.571,1,7.99v16.88    c0,0.42,0.342,0.762,0.762,0.762h3.264c0.276,0,0.5,0.224,0.5,0.5s-0.224,0.5-0.5,0.5H1.762C0.791,26.632,0,25.842,0,24.87V7.99    c0-0.971,0.791-1.761,1.762-1.761H18.23c0.276,0,0.5,0.224,0.5,0.5v10.499h12.126c1.182,0,2.144,0.962,2.144,2.144v5.499    C33,25.842,32.21,26.632,31.239,26.632z"
         id="path7"
         style="fill-opacity:1;fill:url(#linearGradient4193)" /><path
         d="M22.161,26.632H10.552c-0.276,0-0.5-0.224-0.5-0.5s0.224-0.5,0.5-0.5h11.609c0.276,0,0.5,0.224,0.5,0.5    S22.437,26.632,22.161,26.632z"
         id="path9"
         style="fill-opacity:1;fill:url(#linearGradient4193)" /><path
         d="M29.906,18.228c-0.157,0-0.311-0.073-0.409-0.211l-5.472-7.728H18.23c-0.276,0-0.5-0.224-0.5-0.5s0.224-0.5,0.5-0.5h6.054    c0.162,0,0.314,0.079,0.408,0.211l5.622,7.938c0.16,0.226,0.106,0.538-0.119,0.697C30.106,18.198,30.005,18.228,29.906,18.228z"
         id="path11"
         style="fill-opacity:1;fill:url(#linearGradient4193)" /><path
         d="M7.789,29.395c-1.799,0-3.263-1.464-3.263-3.263c0-1.799,1.464-3.263,3.263-3.263s3.263,1.464,3.263,3.263    C11.052,27.931,9.588,29.395,7.789,29.395z M7.789,23.869c-1.248,0-2.263,1.015-2.263,2.263c0,1.248,1.015,2.263,2.263,2.263    s2.263-1.015,2.263-2.263C10.052,24.884,9.037,23.869,7.789,23.869z"
         id="path13"
         style="fill-opacity:1;fill:url(#linearGradient4193)" /><path
         d="M24.924,29.395c-1.799,0-3.263-1.464-3.263-3.263c0-1.799,1.464-3.263,3.263-3.263c1.799,0,3.263,1.464,3.263,3.263    C28.187,27.931,26.723,29.395,24.924,29.395z M24.924,23.869c-1.248,0-2.263,1.015-2.263,2.263c0,1.248,1.015,2.263,2.263,2.263    c1.248,0,2.263-1.015,2.263-2.263C27.187,24.884,26.171,23.869,24.924,23.869z"
         id="path15"
         style="fill-opacity:1;fill:url(#linearGradient4193)" /></g><g
       id="g17"
       style="fill-opacity:1;fill:url(#linearGradient4193)"><path
         d="M13.532,14.404H5.716c-0.276,0-0.5-0.224-0.5-0.5s0.224-0.5,0.5-0.5h7.816c0.276,0,0.5,0.224,0.5,0.5    S13.809,14.404,13.532,14.404z"
         id="path19"
         style="fill-opacity:1;fill:url(#linearGradient4193)" /><path
         d="M9.624,18.312c-0.276,0-0.5-0.224-0.5-0.5V9.996c0-0.276,0.224-0.5,0.5-0.5s0.5,0.224,0.5,0.5v7.816    C10.124,18.088,9.9,18.312,9.624,18.312z"
         id="path21"
         style="fill-opacity:1;fill:url(#linearGradient4193)" /></g><path
       d="M11.506,7.18H7.455c-0.276,0-0.5-0.224-0.5-0.5V6.131c0-1.393,1.133-2.526,2.526-2.526s2.526,1.133,2.526,2.526V6.68   C12.006,6.956,11.783,7.18,11.506,7.18z M7.955,6.18l3.052-0.049c0-0.841-0.685-1.526-1.526-1.526S7.955,5.29,7.955,6.131V6.18z"
       id="path23"
       style="fill-opacity:1;fill:url(#linearGradient4193)" /></g><g
     id="g25" /><g
     id="g27" /><g
     id="g29" /><g
     id="g31" /><g
     id="g33" /><g
     id="g35" /><g
     id="g37" /><g
     id="g39" /><g
     id="g41" /><g
     id="g43" /><g
     id="g45" /><g
     id="g47" /><g
     id="g49" /><g
     id="g51" /><g
     id="g53" /></svg>