<?xml version="1.0" encoding="UTF-8" standalone="no"?>
<!-- Generator: Adobe Illustrator 19.0.0, SVG Export Plug-In . SVG Version: 6.00 Build 0)  -->

<svg
   xmlns:dc="http://purl.org/dc/elements/1.1/"
   xmlns:cc="http://creativecommons.org/ns#"
   xmlns:rdf="http://www.w3.org/1999/02/22-rdf-syntax-ns#"
   xmlns:svg="http://www.w3.org/2000/svg"
   xmlns="http://www.w3.org/2000/svg"
   xmlns:xlink="http://www.w3.org/1999/xlink"
   xmlns:sodipodi="http://sodipodi.sourceforge.net/DTD/sodipodi-0.dtd"
   xmlns:inkscape="http://www.inkscape.org/namespaces/inkscape"
   version="1.1"
   id="Capa_1"
   x="0px"
   y="0px"
   viewBox="0 0 34.952 34.952"
   style="enable-background:new 0 0 34.952 34.952;"
   xml:space="preserve"
   inkscape:version="0.91 r13725"
   sodipodi:docname="car-1.svg"><metadata
     id="metadata53"><rdf:RDF><cc:Work
         rdf:about=""><dc:format>image/svg+xml</dc:format><dc:type
           rdf:resource="http://purl.org/dc/dcmitype/StillImage" /><dc:title></dc:title></cc:Work></rdf:RDF></metadata><defs
     id="defs51"><linearGradient
       inkscape:collect="always"
       id="linearGradient4181"><stop
         style="stop-color:#0be9d8;stop-opacity:1"
         offset="0"
         id="stop4183" /><stop
         style="stop-color:#20d9ea;stop-opacity:0"
         offset="1"
         id="stop4185" /></linearGradient><linearGradient
       inkscape:collect="always"
       xlink:href="#linearGradient4181"
       id="linearGradient4187"
       x1="-0.74078077"
       y1="9.1823053"
       x2="60.721577"
       y2="38.802643"
       gradientUnits="userSpaceOnUse" /></defs><sodipodi:namedview
     pagecolor="#ffffff"
     bordercolor="#666666"
     borderopacity="1"
     objecttolerance="10"
     gridtolerance="10"
     guidetolerance="10"
     inkscape:pageopacity="0"
     inkscape:pageshadow="2"
     inkscape:window-width="1366"
     inkscape:window-height="711"
     id="namedview49"
     showgrid="false"
     inkscape:zoom="6.7521173"
     inkscape:cx="14.313459"
     inkscape:cy="17.476"
     inkscape:window-x="0"
     inkscape:window-y="27"
     inkscape:window-maximized="1"
     inkscape:current-layer="Capa_1" /><g
     id="g3"
     style="fill-opacity:1;fill:url(#linearGradient4187)"><g
       id="g5"
       style="fill-opacity:1;fill:url(#linearGradient4187)"><path
         d="M24.333,23.109H12.902c-0.276,0-0.5-0.224-0.5-0.5s0.224-0.5,0.5-0.5h11.431c0.276,0,0.5,0.224,0.5,0.5    S24.609,23.109,24.333,23.109z"
         id="path7"
         style="fill-opacity:1;fill:url(#linearGradient4187)" /><path
         d="M10.183,25.829c-1.776,0-3.221-1.444-3.221-3.221s1.444-3.221,3.221-3.221c1.775,0,3.22,1.444,3.22,3.221    S11.958,25.829,10.183,25.829z M10.183,20.388c-1.225,0-2.221,0.996-2.221,2.221s0.996,2.221,2.221,2.221    c1.224,0,2.22-0.996,2.22-2.221S11.406,20.388,10.183,20.388z"
         id="path9"
         style="fill-opacity:1;fill:url(#linearGradient4187)" /><path
         d="M27.054,25.829c-1.776,0-3.221-1.444-3.221-3.221s1.444-3.221,3.221-3.221s3.221,1.444,3.221,3.221    S28.83,25.829,27.054,25.829z M27.054,20.388c-1.225,0-2.221,0.996-2.221,2.221s0.996,2.221,2.221,2.221s2.221-0.996,2.221-2.221    S28.278,20.388,27.054,20.388z"
         id="path11"
         style="fill-opacity:1;fill:url(#linearGradient4187)" /></g><path
       d="M24.337,23.109H12.904c-0.276,0-0.5-0.224-0.5-0.5s0.224-0.5,0.5-0.5h11.433c0.276,0,0.5,0.224,0.5,0.5   S24.613,23.109,24.337,23.109z"
       id="path13"
       style="fill-opacity:1;fill:url(#linearGradient4187)" /><path
       d="M32.175,23.109h-2.403c-0.276,0-0.5-0.224-0.5-0.5s0.224-0.5,0.5-0.5h2.403c0.619,0,1.138-0.444,1.233-1.056l0.533-3.413   c0.037-0.239-0.022-0.477-0.169-0.67c-0.146-0.192-0.357-0.314-0.598-0.344l-6.661-0.812c-0.096-0.012-0.187-0.051-0.261-0.113   l-6.021-5.061c-0.397-0.334-0.902-0.518-1.422-0.518H9.39c-0.465,0-0.892,0.234-1.143,0.626l-2.815,4.405   c-0.063,0.101-0.162,0.175-0.276,0.209l-3.4,1.025c-0.505,0.152-0.823,0.659-0.742,1.181l0.476,3.049   c0.135,0.863,0.867,1.49,1.741,1.49h4.229c0.276,0,0.5,0.224,0.5,0.5s-0.224,0.5-0.5,0.5H3.229c-1.37,0-2.519-0.982-2.729-2.336   l-0.476-3.049c-0.157-1.012,0.462-1.997,1.441-2.292l3.224-0.972l2.716-4.25C7.84,9.529,8.582,9.123,9.39,9.123h9.421   c0.754,0,1.487,0.267,2.064,0.752l5.907,4.965l6.514,0.794c0.512,0.063,0.964,0.322,1.274,0.733   c0.311,0.41,0.438,0.917,0.359,1.427l-0.533,3.413C34.225,22.309,33.29,23.109,32.175,23.109z"
       id="path15"
       style="fill-opacity:1;fill:url(#linearGradient4187)" /><path
       d="M21.16,16.204H9.692c-0.276,0-0.5-0.224-0.5-0.5s0.224-0.5,0.5-0.5H21.16c0.276,0,0.5,0.224,0.5,0.5   S21.436,16.204,21.16,16.204z"
       id="path17"
       style="fill-opacity:1;fill:url(#linearGradient4187)" /></g><g
     id="g19" /><g
     id="g21" /><g
     id="g23" /><g
     id="g25" /><g
     id="g27" /><g
     id="g29" /><g
     id="g31" /><g
     id="g33" /><g
     id="g35" /><g
     id="g37" /><g
     id="g39" /><g
     id="g41" /><g
     id="g43" /><g
     id="g45" /><g
     id="g47" /></svg>