<?xml version="1.0" encoding="UTF-8" standalone="no"?>
<!-- Generator: Adobe Illustrator 19.0.0, SVG Export Plug-In . SVG Version: 6.00 Build 0)  -->

<svg
   xmlns:dc="http://purl.org/dc/elements/1.1/"
   xmlns:cc="http://creativecommons.org/ns#"
   xmlns:rdf="http://www.w3.org/1999/02/22-rdf-syntax-ns#"
   xmlns:svg="http://www.w3.org/2000/svg"
   xmlns="http://www.w3.org/2000/svg"
   xmlns:xlink="http://www.w3.org/1999/xlink"
   xmlns:sodipodi="http://sodipodi.sourceforge.net/DTD/sodipodi-0.dtd"
   xmlns:inkscape="http://www.inkscape.org/namespaces/inkscape"
   version="1.1"
   id="Capa_1"
   x="0px"
   y="0px"
   viewBox="0 0 39.619 39.619"
   style="enable-background:new 0 0 39.619 39.619;"
   xml:space="preserve"
   inkscape:version="0.91 r13725"
   sodipodi:docname="eye.svg"><metadata
     id="metadata65"><rdf:RDF><cc:Work
         rdf:about=""><dc:format>image/svg+xml</dc:format><dc:type
           rdf:resource="http://purl.org/dc/dcmitype/StillImage" /><dc:title /></cc:Work></rdf:RDF></metadata><defs
     id="defs63"><linearGradient
       inkscape:collect="always"
       id="linearGradient4193"><stop
         style="stop-color:#dd2476;stop-opacity:1"
         offset="0"
         id="stop4195" /><stop
         style="stop-color:#ff512f;stop-opacity:0"
         offset="1"
         id="stop4197" /></linearGradient><linearGradient
       inkscape:collect="always"
       xlink:href="#linearGradient4193"
       id="linearGradient4199"
       x1="0"
       y1="5.0363135"
       x2="70.17363"
       y2="44.823189"
       gradientUnits="userSpaceOnUse" /></defs><sodipodi:namedview
     pagecolor="#ffffff"
     bordercolor="#666666"
     borderopacity="1"
     objecttolerance="10"
     gridtolerance="10"
     guidetolerance="10"
     inkscape:pageopacity="0"
     inkscape:pageshadow="2"
     inkscape:window-width="1366"
     inkscape:window-height="711"
     id="namedview61"
     showgrid="false"
     inkscape:zoom="5.956738"
     inkscape:cx="23.322787"
     inkscape:cy="19.8095"
     inkscape:window-x="0"
     inkscape:window-y="27"
     inkscape:window-maximized="1"
     inkscape:current-layer="Capa_1" /><g
     id="g3"
     style="fill-opacity:1;fill:url(#linearGradient4199)"><g
       id="g5"
       style="fill-opacity:1;fill:url(#linearGradient4199)"><path
         d="M19.809,35.25c-13.103,0-19.692-13.042-19.757-13.173C0.018,22.008,0,21.932,0,21.855v-0.133    c0-0.077,0.018-0.152,0.052-0.221C0.116,21.37,6.706,8.326,19.809,8.326c13.104,0,19.694,13.043,19.759,13.175    c0.034,0.069,0.052,0.145,0.052,0.221v0.133c0,0.077-0.018,0.152-0.052,0.221C39.503,22.208,32.913,35.25,19.809,35.25z     M1.029,21.789C1.804,23.235,8.095,34.25,19.809,34.25c11.729,0,18.008-11.015,18.781-12.461    c-0.774-1.445-7.065-12.463-18.781-12.463C8.081,9.326,1.803,20.342,1.029,21.789z"
         id="path7"
         style="fill-opacity:1;fill:url(#linearGradient4199)" /><path
         d="M19.809,28.29c-3.548,0-6.434-2.887-6.434-6.437c0-3.548,2.886-6.435,6.434-6.435c3.549,0,6.436,2.887,6.436,6.435    C26.244,25.403,23.357,28.29,19.809,28.29z M19.809,16.419c-2.996,0-5.434,2.438-5.434,5.435c0,2.998,2.438,5.437,5.434,5.437    c2.997,0,5.436-2.439,5.436-5.437C25.244,18.857,22.806,16.419,19.809,16.419z"
         id="path9"
         style="fill-opacity:1;fill:url(#linearGradient4199)" /><circle
         cx="19.81"
         cy="21.853"
         r="2.146"
         id="circle11"
         style="fill-opacity:1;fill:url(#linearGradient4199)" /></g><g
       id="g13"
       style="fill-opacity:1;fill:url(#linearGradient4199)"><g
         id="g15"
         style="fill-opacity:1;fill:url(#linearGradient4199)"><g
           id="g17"
           style="fill-opacity:1;fill:url(#linearGradient4199)"><path
             d="M19.81,9.326c-0.276,0-0.5-0.224-0.5-0.5V4.869c0-0.276,0.224-0.5,0.5-0.5s0.5,0.224,0.5,0.5v3.957      C20.31,9.103,20.086,9.326,19.81,9.326z"
             id="path19"
             style="fill-opacity:1;fill:url(#linearGradient4199)" /><path
             d="M4.639,16.285c-0.128,0-0.256-0.049-0.354-0.146l-2.797-2.797c-0.195-0.195-0.195-0.512,0-0.707s0.512-0.195,0.707,0      l2.797,2.797c0.195,0.195,0.195,0.512,0,0.707C4.895,16.236,4.767,16.285,4.639,16.285z"
             id="path21"
             style="fill-opacity:1;fill:url(#linearGradient4199)" /><path
             d="M11.27,11.26c-0.174,0-0.343-0.091-0.435-0.252L8.878,7.57C8.741,7.33,8.825,7.024,9.065,6.888      c0.238-0.137,0.546-0.053,0.682,0.187l1.957,3.438c0.137,0.24,0.053,0.545-0.188,0.682C11.438,11.239,11.354,11.26,11.27,11.26z      "
             id="path23"
             style="fill-opacity:1;fill:url(#linearGradient4199)" /></g><g
           id="g25"
           style="fill-opacity:1;fill:url(#linearGradient4199)"><path
             d="M34.979,16.285c-0.128,0-0.256-0.049-0.354-0.146c-0.195-0.195-0.195-0.512,0-0.707l2.797-2.797      c0.195-0.195,0.512-0.195,0.707,0s0.195,0.512,0,0.707l-2.797,2.797C35.234,16.236,35.106,16.285,34.979,16.285z"
             id="path27"
             style="fill-opacity:1;fill:url(#linearGradient4199)" /><path
             d="M28.348,11.26c-0.084,0-0.169-0.021-0.247-0.065c-0.24-0.137-0.324-0.442-0.188-0.682l1.958-3.438      c0.138-0.24,0.441-0.324,0.682-0.187S30.877,7.33,30.74,7.57l-1.958,3.438C28.689,11.169,28.521,11.26,28.348,11.26z"
             id="path29"
             style="fill-opacity:1;fill:url(#linearGradient4199)" /></g></g></g></g><g
     id="g31" /><g
     id="g33" /><g
     id="g35" /><g
     id="g37" /><g
     id="g39" /><g
     id="g41" /><g
     id="g43" /><g
     id="g45" /><g
     id="g47" /><g
     id="g49" /><g
     id="g51" /><g
     id="g53" /><g
     id="g55" /><g
     id="g57" /><g
     id="g59" /></svg>