<?xml version="1.0" encoding="UTF-8" standalone="no"?>
<!-- Generator: Adobe Illustrator 19.0.0, SVG Export Plug-In . SVG Version: 6.00 Build 0)  -->

<svg
   xmlns:dc="http://purl.org/dc/elements/1.1/"
   xmlns:cc="http://creativecommons.org/ns#"
   xmlns:rdf="http://www.w3.org/1999/02/22-rdf-syntax-ns#"
   xmlns:svg="http://www.w3.org/2000/svg"
   xmlns="http://www.w3.org/2000/svg"
   xmlns:xlink="http://www.w3.org/1999/xlink"
   xmlns:sodipodi="http://sodipodi.sourceforge.net/DTD/sodipodi-0.dtd"
   xmlns:inkscape="http://www.inkscape.org/namespaces/inkscape"
   version="1.1"
   id="Capa_1"
   x="0px"
   y="0px"
   viewBox="0 0 33.205 33.205"
   style="enable-background:new 0 0 33.205 33.205;"
   xml:space="preserve"
   inkscape:version="0.91 r13725"
   sodipodi:docname="home-1.svg"><metadata
     id="metadata47"><rdf:RDF><cc:Work
         rdf:about=""><dc:format>image/svg+xml</dc:format><dc:type
           rdf:resource="http://purl.org/dc/dcmitype/StillImage" /><dc:title></dc:title></cc:Work></rdf:RDF></metadata><defs
     id="defs45"><linearGradient
       inkscape:collect="always"
       id="linearGradient4175"><stop
         style="stop-color:#0be9d8;stop-opacity:1"
         offset="0"
         id="stop4177" /><stop
         style="stop-color:#20daea;stop-opacity:0"
         offset="1"
         id="stop4179" /></linearGradient><linearGradient
       inkscape:collect="always"
       xlink:href="#linearGradient4175"
       id="linearGradient4181"
       x1="-0.19007762"
       y1="0.1407602"
       x2="53.516056"
       y2="39.677223"
       gradientUnits="userSpaceOnUse" /></defs><sodipodi:namedview
     pagecolor="#ffffff"
     bordercolor="#666666"
     borderopacity="1"
     objecttolerance="10"
     gridtolerance="10"
     guidetolerance="10"
     inkscape:pageopacity="0"
     inkscape:pageshadow="2"
     inkscape:window-width="1366"
     inkscape:window-height="711"
     id="namedview43"
     showgrid="false"
     inkscape:zoom="7.107363"
     inkscape:cx="16.602501"
     inkscape:cy="16.602501"
     inkscape:window-x="0"
     inkscape:window-y="27"
     inkscape:window-maximized="1"
     inkscape:current-layer="Capa_1" /><g
     id="g3"
     style="fill-opacity:1;fill:url(#linearGradient4181)"><path
       d="M27.823,33.205H5.38c-0.276,0-0.5-0.224-0.5-0.5V15.488c0-0.276,0.224-0.5,0.5-0.5h22.443c0.276,0,0.5,0.224,0.5,0.5   v17.217C28.323,32.982,28.1,33.205,27.823,33.205z M5.88,32.205h21.443V15.988H5.88V32.205z"
       id="path5"
       style="fill-opacity:1;fill:url(#linearGradient4181)" /><path
       d="M32.474,15.988H0.732c-0.205,0-0.389-0.125-0.465-0.315c-0.075-0.19-0.027-0.407,0.121-0.548L16.257,0.137   c0.193-0.183,0.494-0.182,0.688,0l15.873,14.988c0.148,0.141,0.196,0.358,0.121,0.548C32.862,15.863,32.679,15.988,32.474,15.988z    M1.989,14.988h29.227L16.601,1.188L1.989,14.988z"
       id="path7"
       style="fill-opacity:1;fill:url(#linearGradient4181)" /><path
       d="M20.562,33.205h-7.918c-0.276,0-0.5-0.224-0.5-0.5V21.957c0-0.276,0.224-0.5,0.5-0.5h7.918c0.276,0,0.5,0.224,0.5,0.5   v10.748C21.062,32.982,20.838,33.205,20.562,33.205z M13.144,32.205h6.918v-9.748h-6.918V32.205z"
       id="path9"
       style="fill-opacity:1;fill:url(#linearGradient4181)" /><path
       d="M27.823,11.553c-0.276,0-0.5-0.224-0.5-0.5V4.936c0-0.276,0.224-0.5,0.5-0.5s0.5,0.224,0.5,0.5v6.117   C28.323,11.329,28.1,11.553,27.823,11.553z"
       id="path11"
       style="fill-opacity:1;fill:url(#linearGradient4181)" /></g><g
     id="g13" /><g
     id="g15" /><g
     id="g17" /><g
     id="g19" /><g
     id="g21" /><g
     id="g23" /><g
     id="g25" /><g
     id="g27" /><g
     id="g29" /><g
     id="g31" /><g
     id="g33" /><g
     id="g35" /><g
     id="g37" /><g
     id="g39" /><g
     id="g41" /></svg>